<?xml version="1.0" encoding="utf-8"?>
<!-- Generator: Adobe Illustrator 23.0.1, SVG Export Plug-In . SVG Version: 6.00 Build 0)  -->
<svg version="1.1" xmlns="http://www.w3.org/2000/svg" xmlns:xlink="http://www.w3.org/1999/xlink" x="0px" y="0px"
	 viewBox="0 0 500 500" style="enable-background:new 0 0 500 500;" xml:space="preserve">
<style type="text/css">
	.st0{fill:#0A0909;}
	.st1{fill:none;stroke:#FFFFFF;stroke-width:7;stroke-miterlimit:10;}
	.st2{fill:#FFFFFF;}
	.st3{fill:none;stroke:#000000;stroke-miterlimit:10;}
	.st4{fill:none;stroke:#000000;stroke-width:5;stroke-miterlimit:10;}
	.st5{fill:url(#SVGID_1_);}
	.st6{fill:url(#SVGID_2_);}
</style>
<g id="Layer_2">
</g>
<g id="Layer_3">
	<g id="XMLID_8_">
		<g>
			<path class="st0" d="M417.06,375.83l-0.03-0.03c15.71-20.68,26.63-40.49,33.67-66.18c0,0-1.36-50.45-18.49-48.79l-57.12,14.75
				c0,0-17.38,6.9-19.76,24.03c-2.37,17.12-14.99,35.21-4.04,55.42c10.94,20.22,36.89,33.07,36.89,33.07
				S410.06,383.11,417.06,375.83z M443.72,173.01c0-0.01,0-0.01,0-0.01c-0.04-0.1-0.08-0.19-0.12-0.29
				C412.51,97.18,337.83,43.96,250.65,43.96c-86.06,0-159.93,51.85-191.72,125.82c-0.66,1.52-1.29,3.05-1.9,4.59
				c0,0-2.07,18.19,11.09,21.67c13.17,3.48,16.17,5.87,42.19,0s98.48-21.73,108.95-22.67c10.46-0.96,31.4-2.86,31.4-2.86v-0.11
				c0,0,20.98,1.9,31.48,2.85c10.5,0.96,83.15,16.81,109.23,22.67c26.08,5.88,29.1,3.5,42.3,0
				C446.65,192.49,443.81,173.59,443.72,173.01z M83.66,374.96c6.19,7.66,29.5,12.97,29.5,12.97s25.94-12.85,36.88-33.07
				c10.94-20.21-1.67-38.29-4.04-55.42c-2.38-17.13-19.75-24.02-19.75-24.02l-57.09-14.75c-16.92-1.65-18.46,47.54-18.49,48.76
				c6.99,23.74,18.17,45.71,32.65,65.08C83.42,374.66,83.53,374.82,83.66,374.96z M178.77,445.53c1.32,0.48,2.65,0.95,3.98,1.4
				c21.28,7.29,44.12,11.24,67.9,11.24c27.01,0,52.83-5.11,76.53-14.41c0,0,12.23-13.15,3.67-31.32
				c-8.56-18.19-40.44-27.17-40.44-27.17s-9.36-3.65-35.05-5.55s-43.13,4.13-43.13,4.13s-28.71,9.67-41.71,29.96
				C157.52,434.11,178.77,445.53,178.77,445.53z M250.69,8.15c134.68,0,243.87,108.69,243.87,242.78S385.37,493.71,250.69,493.71
				c-134.67,0-243.86-108.69-243.86-242.78S116.01,8.15,250.69,8.15z"/>
		</g>
		<g>
			<path class="st1" d="M494.55,250.93c0,134.08-109.18,242.78-243.87,242.78c-134.67,0-243.86-108.69-243.86-242.78
				S116.01,8.15,250.69,8.15C385.37,8.15,494.55,116.85,494.55,250.93z"/>
			<path class="st1" d="M327.18,443.76c-23.7,9.31-49.51,14.41-76.53,14.41c-23.78,0-46.62-3.95-67.9-11.24"/>
			<path class="st1" d="M417.03,375.8c15.71-20.68,26.63-40.49,33.67-66.18"/>
			<path class="st1" d="M443.72,173.01c0.03,0.09,0.08,0.18,0.11,0.27"/>
			<path class="st1" d="M443.6,172.71c0.04,0.1,0.08,0.19,0.12,0.29"/>
			<path class="st1" d="M57.03,174.37c0.61-1.54,1.25-3.06,1.9-4.59C90.72,95.81,164.59,43.96,250.65,43.96
				c87.18,0,161.85,53.22,192.94,128.75"/>
			<path class="st1" d="M83.31,374.52c-14.48-19.37-25.66-41.34-32.65-65.08c-0.31-1.06-0.61-2.11-0.91-3.18"/>
			<path class="st1" d="M85.87,377.87c-0.75-0.96-1.49-1.93-2.22-2.91"/>
			<path class="st1" d="M178.77,445.53c-0.59-0.22-1.17-0.43-1.76-0.66"/>
			<path class="st1" d="M182.75,446.93c-1.34-0.46-2.66-0.92-3.98-1.4"/>
			<path class="st1" d="M250.65,170.51c0,0-20.94,1.9-31.4,2.86c-10.47,0.95-82.94,16.81-108.95,22.67s-29.02,3.48-42.19,0
				c-13.16-3.48-11.09-21.67-11.09-21.67"/>
			<path class="st1" d="M443.72,173c0,0,0,0,0,0.01c0.09,0.58,2.93,19.48-10.06,22.91c-13.2,3.5-16.22,5.88-42.3,0
				c-26.08-5.87-98.73-21.72-109.23-22.67c-10.5-0.95-31.48-2.85-31.48-2.85"/>
			<path class="st1" d="M178.77,445.53c0,0-21.25-11.42-8.25-31.72c13-20.29,41.71-29.96,41.71-29.96s17.44-6.03,43.13-4.13
				s35.05,5.55,35.05,5.55s31.88,8.98,40.44,27.17c8.56,18.18-3.67,31.32-3.67,31.32"/>
			<path class="st1" d="M50.66,309.46c0,0,0-0.01,0-0.02c0.03-1.22,1.57-50.41,18.49-48.76l57.09,14.75c0,0,17.36,6.89,19.75,24.02
				c2.37,17.13,14.98,35.21,4.04,55.42c-10.94,20.22-36.88,33.07-36.88,33.07s-23.31-5.31-29.5-12.97c-0.12-0.14-0.23-0.3-0.35-0.45
				"/>
			<path class="st1" d="M450.7,309.61c0,0-1.36-50.45-18.49-48.79l-57.12,14.75c0,0-17.38,6.9-19.76,24.03
				c-2.37,17.12-14.99,35.21-4.04,55.42c10.94,20.22,36.89,33.07,36.89,33.07s21.88-4.99,28.88-12.27c0.38-0.38,0.7-0.77,0.98-1.16"
				/>
		</g>
	</g>
	<g id="XMLID_7_">
		<g>
			<path class="st2" d="M248.2,317.54c2.15-0.08,15.91-0.64,16.6-1.25c0.76-0.65,0.6-1.65,0.6-1.65s-0.03,0-0.08,0.01l-0.03-0.42
				c0.94-0.08,1.56-0.14,1.56-0.14s13.64-1.98,15.75-3.04c2.11-1.05,2.77-2.37,2.77-2.37l9.35-15.62h-5.67l-9.16,12.06
				c0,0-14.76,1.98-16.8,0.86c-2.04-1.13-6.33-8.04-6.33-8.04h-17.24c0,0-4.29,6.92-6.33,8.04c-2.05,1.12-16.8-0.86-16.8-0.86
				l-9.16-12.06h-5.67l9.35,15.62c0,0,0.66,1.32,2.77,2.37c2.11,1.06,15.75,3.04,15.75,3.04s0.58,0.05,1.47,0.13l-0.02,0.42
				c0,0-0.16,1,0.59,1.65c0.71,0.62,14.92,1.18,16.7,1.25C248.19,317.54,248.19,317.54,248.2,317.54z M303.03,211.16
				c6.06,12.65,5.27,52.98,5.27,60.75c0,7.78-2.11,13.31-2.51,15.68c-0.39,2.37-13.83,34.53-18.84,41.51s-14.37,18.32-17,20.56
				c-2.64,2.24-7.12,6.07-9.75,7.52s-9.39,4.12-10.67,4.02c-0.7-0.05-1.11-0.05-1.34-0.03c-0.01,0-0.01,0-0.02,0
				c-0.22-0.02-0.64-0.03-1.39,0.03c-1.29,0.1-8.03-2.57-10.67-4.02s-7.12-5.28-9.75-7.52s-11.99-13.57-17-20.56
				c-5.01-6.99-18.45-39.15-18.85-41.51c-0.39-2.37-2.5-7.91-2.5-15.68c0-7.78-0.79-48.1,5.27-60.75
				c5.86-12.21,51.74-12.89,54.93-12.92C252.1,198.29,297.22,199.06,303.03,211.16z M298.84,233.55c3.02,3.01,5.44,6.21,2.5-0.94
				c-2.93-7.16-11.85-8.23-13.11-8.37c-1.25-0.13-9.45-1.22-19.93,4.42c-10.48,5.64-12.16,9.68-12.16,9.68l5.74,5.84
				c0,0,16.9-14.03,24.41-13.84C293.8,230.53,295.82,230.53,298.84,233.55z M282.37,260.87c0,0,15.02-1.74,4.54-7.05
				c-10.47-5.31-22.17,1.42-22.17,1.42s-1.55,0.62-0.33,3.23C265.63,261.07,282.37,260.87,282.37,260.87z M259.9,325.71
				c0.69-1.28-1.09-1.23-1.09-1.23l-10.66,0.58l-10.66-0.58c0,0-1.78-0.05-1.08,1.23c0.69,1.29,6.72,4.5,6.62,7.17
				c-0.1,2.67-0.71,3.56-0.71,3.56s-0.77,1.69-0.77,4.31s0.39,9.43,1.04,12.3c0.64,2.87,1.23,6.82,1.23,6.82l3.02,0.94h1.1h0.44
				h1.11l3.01-0.94c0,0,0.6-3.95,1.24-6.82s1.04-9.68,1.04-12.3s-0.77-4.31-0.77-4.31s-0.62-0.89-0.71-3.56
				C253.18,330.21,259.21,327,259.9,325.71z M234.42,244.17l5.73-5.84c0,0-1.68-4.05-12.15-9.68c-10.47-5.64-18.68-4.55-19.94-4.42
				c-1.25,0.14-10.17,1.22-13.11,8.37c-2.93,7.15-0.51,3.95,2.51,0.94c3.02-3.02,5.04-3.02,12.55-3.22
				C217.52,230.14,234.42,244.17,234.42,244.17z M231.88,258.47c1.22-2.61-0.33-3.23-0.33-3.23s-11.69-6.73-22.18-1.42
				c-10.47,5.31,4.55,7.05,4.55,7.05S230.67,261.07,231.88,258.47z"/>
			<path d="M301.34,232.61c2.94,7.15,0.52,3.95-2.5,0.94c-3.02-3.02-5.05-3.02-12.55-3.22c-7.52-0.19-24.41,13.84-24.41,13.84
				l-5.74-5.84c0,0,1.68-4.05,12.16-9.68c10.47-5.64,18.68-4.55,19.93-4.42C289.49,224.38,298.41,225.46,301.34,232.61z"/>
			<path d="M248.14,305.35c-1.16,1.53-6.64,8.66-7.7,9.13c-0.9,0.4-6.75-0.03-9.53-0.26c-0.89-0.08-1.47-0.13-1.47-0.13
				s-13.64-1.98-15.75-3.04c-2.11-1.05-2.77-2.37-2.77-2.37l-9.35-15.62h5.67l9.16,12.06c0,0,14.75,1.98,16.8,0.86
				c2.04-1.13,6.33-8.04,6.33-8.04h17.24c0,0,4.29,6.92,6.33,8.04c2.04,1.12,16.8-0.86,16.8-0.86l9.16-12.06h5.67l-9.35,15.62
				c0,0-0.66,1.32-2.77,2.37c-2.11,1.06-15.75,3.04-15.75,3.04s-0.62,0.06-1.56,0.14c-2.82,0.23-8.56,0.65-9.44,0.25
				C254.79,314.01,249.3,306.87,248.14,305.35z"/>
			<path d="M286.91,253.83c10.48,5.31-4.54,7.05-4.54,7.05s-16.74,0.2-17.96-2.4c-1.22-2.61,0.33-3.23,0.33-3.23
				S276.44,248.52,286.91,253.83z"/>
			<path d="M248.19,315.69c1.27-0.04,6.61-0.19,8.17-0.19c1.67,0,8.14-0.76,8.95-0.85c0.05-0.01,0.08-0.01,0.08-0.01
				s0.16,1-0.6,1.65c-0.69,0.61-14.45,1.17-16.6,1.25c-0.01,0-0.01,0-0.02,0c-1.78-0.07-15.99-0.63-16.7-1.25
				c-0.75-0.65-0.59-1.65-0.59-1.65s7.25,0.86,9.02,0.86C241.53,315.5,247.15,315.66,248.19,315.69z"/>
			<path d="M248.14,325.06l10.66-0.58c0,0,1.78-0.05,1.09,1.23c-0.69,1.29-6.72,4.5-6.62,7.17c0.09,2.67,0.71,3.56,0.71,3.56
				s0.77,1.69,0.77,4.31s-0.4,9.43-1.04,12.3s-1.24,6.82-1.24,6.82l-3.01,0.94h-1.11h-0.44h-1.1l-3.02-0.94c0,0-0.59-3.95-1.23-6.82
				c-0.65-2.87-1.04-9.68-1.04-12.3s0.77-4.31,0.77-4.31s0.61-0.89,0.71-3.56c0.1-2.67-5.93-5.88-6.62-7.17
				c-0.7-1.28,1.08-1.23,1.08-1.23L248.14,325.06z"/>
			<path d="M240.15,238.34l-5.73,5.84c0,0-16.9-14.03-24.41-13.84c-7.52,0.2-9.53,0.2-12.55,3.22c-3.02,3.01-5.44,6.21-2.51-0.94
				c2.94-7.16,11.86-8.23,13.11-8.37c1.26-0.13,9.46-1.22,19.94,4.42C238.47,234.29,240.15,238.34,240.15,238.34z"/>
			<path d="M231.56,255.25c0,0,1.55,0.62,0.33,3.23c-1.22,2.6-17.96,2.4-17.96,2.4s-15.02-1.74-4.55-7.05
				C219.86,248.52,231.56,255.25,231.56,255.25z"/>
		</g>
		<g>
			<path class="st3" d="M231.56,255.25c0,0-11.69-6.73-22.18-1.42c-10.47,5.31,4.55,7.05,4.55,7.05s16.74,0.2,17.96-2.4
				C233.1,255.87,231.56,255.25,231.56,255.25z"/>
			<path class="st3" d="M234.42,244.17c0,0-16.9-14.03-24.41-13.84c-7.52,0.2-9.53,0.2-12.55,3.22c-3.02,3.01-5.44,6.21-2.51-0.94
				c2.94-7.16,11.86-8.23,13.11-8.37c1.26-0.13,9.46-1.22,19.94,4.42c10.47,5.64,12.15,9.68,12.15,9.68L234.42,244.17z"/>
			<path class="st4" d="M248.18,361.17c0.13,0.02,0.18,0.03,0.18,0.03"/>
			<path class="st4" d="M248.36,198.24c0,0-0.06,0-0.17,0c-3.19,0.03-49.07,0.71-54.93,12.92c-6.06,12.65-5.27,52.98-5.27,60.75
				c0,7.78,2.11,13.31,2.5,15.68c0.4,2.37,13.84,34.53,18.85,41.51c5.01,6.99,14.36,18.32,17,20.56s7.12,6.07,9.75,7.52
				s9.38,4.12,10.67,4.02c0.75-0.06,1.17-0.05,1.39-0.03"/>
			<path class="st3" d="M248.36,325.07l-0.22-0.01l-10.66-0.58c0,0-1.78-0.05-1.08,1.23c0.69,1.29,6.72,4.5,6.62,7.17
				c-0.1,2.67-0.71,3.56-0.71,3.56s-0.77,1.69-0.77,4.31s0.39,9.43,1.04,12.3c0.64,2.87,1.23,6.82,1.23,6.82l3.02,0.94h1.1"/>
			<path class="st3" d="M248.18,317.54c-1.78-0.07-15.99-0.63-16.7-1.25c-0.75-0.65-0.59-1.65-0.59-1.65s7.25,0.86,9.02,0.86
				c1.61,0,7.23,0.16,8.27,0.19c0.11,0.01,0.17,0.01,0.17,0.01"/>
			<path class="st3" d="M248.36,317.55c0,0-0.06,0-0.16-0.01"/>
			<path class="st3" d="M264.74,255.25c0,0,11.69-6.73,22.17-1.42c10.48,5.31-4.54,7.05-4.54,7.05s-16.74,0.2-17.96-2.4
				C263.2,255.87,264.74,255.25,264.74,255.25z"/>
			<path class="st3" d="M261.88,244.17c0,0,16.9-14.03,24.41-13.84c7.51,0.2,9.53,0.2,12.55,3.22c3.02,3.01,5.44,6.21,2.5-0.94
				c-2.93-7.16-11.85-8.23-13.11-8.37c-1.25-0.13-9.45-1.22-19.93,4.42c-10.48,5.64-12.16,9.68-12.16,9.68L261.88,244.17z"/>
			<path class="st4" d="M247.92,198.24c0,0,0.09,0,0.27,0c3.91,0.05,49.03,0.82,54.84,12.92c6.06,12.65,5.27,52.98,5.27,60.75
				c0,7.78-2.11,13.31-2.51,15.68c-0.39,2.37-13.83,34.53-18.84,41.51s-14.37,18.32-17,20.56c-2.64,2.24-7.12,6.07-9.75,7.52
				s-9.39,4.12-10.67,4.02c-0.7-0.05-1.11-0.05-1.34-0.03c-0.01,0-0.01,0-0.02,0c-0.18,0.01-0.24,0.03-0.24,0.03"/>
			<path class="st3" d="M247.92,325.07l0.22-0.01l10.66-0.58c0,0,1.78-0.05,1.09,1.23c-0.69,1.29-6.72,4.5-6.62,7.17
				c0.09,2.67,0.71,3.56,0.71,3.56s0.77,1.69,0.77,4.31s-0.4,9.43-1.04,12.3s-1.24,6.82-1.24,6.82l-3.01,0.94h-1.11h-0.44"/>
			<path class="st3" d="M247.92,305.06c0,0,0.08,0.1,0.22,0.29c1.16,1.53,6.65,8.66,7.71,9.13c0.88,0.4,6.63-0.02,9.44-0.25
				c0.94-0.08,1.56-0.14,1.56-0.14s13.64-1.98,15.75-3.04c2.11-1.05,2.77-2.37,2.77-2.37l9.35-15.62h-5.67l-9.16,12.06
				c0,0-14.76,1.98-16.8,0.86c-2.04-1.13-6.33-8.04-6.33-8.04h-17.24c0,0-4.29,6.92-6.33,8.04c-2.05,1.12-16.8-0.86-16.8-0.86
				l-9.16-12.06h-5.67l9.35,15.62c0,0,0.66,1.32,2.77,2.37c2.11,1.06,15.75,3.04,15.75,3.04s0.58,0.05,1.47,0.13
				c2.79,0.23,8.63,0.66,9.53,0.26c1.06-0.47,6.54-7.61,7.7-9.13c0.14-0.19,0.22-0.29,0.22-0.29"/>
			<path class="st3" d="M247.92,317.55c0,0,0.09,0,0.26-0.01c0.01,0,0.01,0,0.02,0c2.15-0.08,15.91-0.64,16.6-1.25
				c0.76-0.65,0.6-1.65,0.6-1.65s-0.03,0-0.08,0.01c-0.81,0.09-7.29,0.85-8.95,0.85c-1.57,0-6.91,0.15-8.17,0.19
				c-0.17,0.01-0.27,0.01-0.27,0.01"/>
		</g>
	</g>
	<g id="XMLID_6_">
		<g>
			<radialGradient id="SVGID_1_" cx="204.6562" cy="272.2941" r="10.9181" gradientUnits="userSpaceOnUse">
				<stop  offset="0" style="stop-color:#B500B5"/>
				<stop  offset="1" style="stop-color:#FFFFFF"/>
			</radialGradient>
			<path class="st5" d="M204.65,261.38c6.03,0,10.93,4.89,10.93,10.91c0,6.03-4.89,10.93-10.93,10.93
				c-6.02,0-10.91-4.89-10.91-10.93C193.74,266.27,198.63,261.38,204.65,261.38z"/>
		</g>
		<g>
		</g>
	</g>
	<g id="XMLID_5_">
		<g>
			<radialGradient id="SVGID_2_" cx="291.6434" cy="272.2937" r="10.9181" gradientUnits="userSpaceOnUse">
				<stop  offset="0" style="stop-color:#B500B5"/>
				<stop  offset="1" style="stop-color:#FFFFFF"/>
			</radialGradient>
			<path class="st6" d="M291.64,261.38c6.03,0,10.93,4.89,10.93,10.91c0,6.03-4.89,10.93-10.93,10.93
				c-6.02,0-10.91-4.89-10.91-10.93C280.73,266.27,285.62,261.38,291.64,261.38z"/>
		</g>
		<g>
		</g>
	</g>
</g>
</svg>
